<svg width="148" height="148" viewBox="0 0 148 148" fill="none" xmlns="http://www.w3.org/2000/svg">
<g clip-path="url(#clip0_3206_205218)">
<path d="M97.6896 114.177C98.6831 115.401 99.7287 116.944 100.606 118.835C103.355 124.758 101.666 128.459 101.183 131.177C100.838 131.383 100.757 131.351 100.438 131.85C99.358 133.538 101.044 136.07 101.125 136.227C101.099 136.233 101.076 136.242 101.05 136.247C97.2957 137.309 93.2957 138.269 89.0582 139.067C73.7852 141.941 60.0271 141.843 48.7917 140.685C45.3363 140.291 39.5231 139.18 33.2726 135.621C26.5151 131.772 22.4225 126.873 20.3428 123.978C16.7049 117.304 12.6672 107.032 13.4087 94.583C14.295 79.7115 22.2284 57.6813 38.2689 54.4732C45.0698 53.1129 51.2277 55.8684 54.8366 57.8873" fill="#D8E7FF"/>
<path d="M97.6896 114.177C98.6831 115.401 99.7287 116.944 100.606 118.835C103.355 124.758 101.666 128.459 101.183 131.177C100.838 131.383 100.757 131.351 100.438 131.85C99.358 133.538 101.044 136.07 101.125 136.227C101.099 136.233 101.076 136.242 101.05 136.247C97.2957 137.309 93.2957 138.269 89.0582 139.067C73.7852 141.941 60.0271 141.843 48.7917 140.685C45.3363 140.291 39.5231 139.18 33.2726 135.621C26.5151 131.772 22.4224 126.873 20.3428 123.978C16.7049 117.304 12.6672 107.032 13.4087 94.583C14.295 79.7115 22.2284 57.6813 38.2689 54.4732C45.0698 53.1129 51.2277 55.8684 54.8366 57.8873" stroke="black" stroke-width="0.25" stroke-miterlimit="10" stroke-linecap="round"/>
<path d="M46.356 103.494C43.0454 96.2333 41.8694 89.9158 41.4031 85.7766C40.6355 78.9805 39.7956 71.5578 43.9578 64.3178C46.4748 59.9379 50.6486 57.6812 52.8586 56.228" stroke="black" stroke-width="0.5" stroke-miterlimit="10" stroke-linecap="round"/>
<path d="M110.978 124.726C110.266 125.385 109.597 126.174 109.388 127.285C109.368 127.395 108.994 129.599 110.613 131.018C111.563 131.85 112.664 131.943 113.038 131.958C116.012 132.126 119.882 132.062 124.299 131.227C127.827 130.559 130.828 129.57 133.229 128.593C133.689 128.404 134.077 128.068 134.318 127.63C134.518 127.273 134.686 126.8 134.674 126.24C134.651 125.127 133.921 124.103 132.818 123.636C131.746 123.203 130.193 122.612 128.287 122.011C127.485 121.759 125.713 121.199 124.455 120.941C119.21 119.859 113.828 122.095 110.978 124.726Z" fill="#C69B4F" stroke="black" stroke-width="0.25" stroke-miterlimit="10" stroke-linecap="round"/>
<path d="M101.122 129.695C100.409 130.353 99.7402 131.142 99.5317 132.253C99.5114 132.364 99.1378 134.568 100.757 135.986C101.707 136.819 102.808 136.912 103.181 136.926C106.156 137.094 110.026 137.031 114.443 136.195C117.86 135.551 120.783 134.6 123.144 133.651C124.079 133.277 124.76 132.413 124.815 131.406C124.818 131.343 124.821 131.276 124.818 131.209C124.795 130.095 124.065 129.071 122.961 128.604C121.889 128.172 120.337 127.58 118.431 126.98C117.629 126.728 115.856 126.168 114.599 125.91C109.354 124.828 103.969 127.064 101.122 129.695Z" fill="#C69B4F" stroke="black" stroke-width="0.25" stroke-miterlimit="10" stroke-linecap="round"/>
<path d="M79.1238 90.383L77.2729 87.8914" stroke="black" stroke-width="0.25" stroke-miterlimit="10"/>
<path d="M121.667 120.706C120.856 121.498 119.471 122.655 117.47 123.525C115.419 124.416 113.583 124.63 112.439 124.674L90.8281 90.0319L91.0106 88.248L107.616 88.7528C109.319 89.6403 111.903 91.256 114.315 94.0261C117.186 97.3183 118.457 100.686 119.034 102.641C119.888 105.492 120.682 108.886 121.171 112.744C121.539 115.647 121.67 118.322 121.667 120.706Z" fill="#00CFB4" stroke="black" stroke-width="0.25" stroke-miterlimit="10" stroke-linecap="round"/>
<path d="M92.8672 86.1973L76.0794 86.4525C75.4827 86.6353 75.1091 87.111 75.167 87.6012C75.2163 88.0218 75.5725 88.3872 76.0794 88.5381H95.2916L92.8672 86.1973Z" fill="#99B6E0" stroke="black" stroke-width="0.25" stroke-miterlimit="10"/>
<path d="M109.039 129.634C110.849 129.034 113.235 127.937 115.816 125.77C116.097 122.446 117.059 107.079 106.536 96.5322C102.504 92.4917 98.3303 90.7049 97.2557 90.2669C84.6417 85.1154 72.5114 91.2995 70.145 92.5642C62.1855 95.2444 54.2261 97.9245 46.2666 100.605V104.364L59.822 113.866L98.4694 116.326C99.1964 117.73 100.039 120.451 100.436 123.212C100.937 126.673 100.367 129.483 99.9205 131.163" fill="#00CFB4"/>
<path d="M109.039 129.634C110.849 129.034 113.235 127.937 115.816 125.77C116.097 122.446 117.059 107.079 106.536 96.5322C102.504 92.4917 98.3303 90.7049 97.2557 90.2669C84.6417 85.1154 72.5114 91.2995 70.145 92.5642C62.1855 95.2444 54.2261 97.9245 46.2666 100.605V104.364L59.822 113.866L98.4694 116.326C99.1964 117.73 100.039 120.451 100.436 123.212C100.937 126.673 100.367 129.483 99.9205 131.163" stroke="black" stroke-width="0.25" stroke-miterlimit="10" stroke-linecap="round"/>
<path d="M99.1964 104.57L94.0175 110.557C90.0929 109.292 82.3477 107.392 72.8503 109.095C65.9828 110.328 60.8039 112.976 57.6265 114.942C58.2637 114.548 58.9386 114.153 59.6511 113.762C60.1609 113.483 60.662 113.222 61.1515 112.979L61.1081 112.909C59.8684 111.427 58.2203 109.762 56.0682 108.21C50.6113 104.274 44.9893 103.279 41.8872 102.989L45.3282 117.591L92.8068 122.255L97.8814 117.753L98.368 117.243" fill="#D8E7FF"/>
<path d="M99.1964 104.57L94.0175 110.557C90.0929 109.292 82.3477 107.392 72.8503 109.095C65.9828 110.328 60.8039 112.976 57.6265 114.942C58.2637 114.548 58.9386 114.153 59.6511 113.762C60.1609 113.483 60.662 113.222 61.1515 112.979L61.1081 112.909C59.8684 111.427 58.2203 109.762 56.0682 108.21C50.6113 104.274 44.9893 103.279 41.8872 102.989L45.3282 117.591L92.8068 122.255L97.8814 117.753L98.368 117.243" stroke="black" stroke-width="0.25" stroke-miterlimit="10" stroke-linecap="round"/>
<path d="M96.0795 117.861L97.826 116.828L98.4285 117.063L98.5444 117.913L96.8239 119.204L92.9658 122.65L90.0578 122.154L83.868 122.255L76.0737 121.553L60.8123 120.248L51.1265 118.864L45.0527 118.107L44.3228 115.053L43.2916 112.692L40.5806 102.914L43.1237 102.496L45.8087 103.32L45.9535 103.378L46.1939 103.854L46.2663 104.448L47.2221 104.84L58.3474 112.326L56.5487 113.188L55.5842 116.085L57.3307 116.608L83.0339 118.122L92.7051 118.331L96.0795 117.861Z" fill="#D8E7FF"/>
<path d="M114.113 127.073C112.928 127.937 111.807 128.456 110.003 129.254C106.214 130.925 102.22 131.131 99.9204 131.163C100.311 127.032 101.149 117.44 94.8082 111.302C94.6547 111.16 94.478 111.009 94.2752 110.855C93.9827 110.635 93.8089 110.531 93.6322 110.449C93.5077 110.394 93.4005 110.357 93.3252 110.333L94.9993 107.497L99.848 103.494" fill="#00CFB4"/>
<path d="M114.113 127.073C112.928 127.937 111.807 128.456 110.003 129.254C106.214 130.925 102.22 131.131 99.9204 131.163C100.311 127.032 101.149 117.44 94.8082 111.302C94.6547 111.16 94.478 111.009 94.2752 110.855C93.9827 110.635 93.8089 110.531 93.6322 110.449C93.5077 110.394 93.4005 110.357 93.3252 110.333L94.9993 107.497L99.848 103.494" stroke="black" stroke-width="0.25" stroke-miterlimit="10" stroke-linecap="round"/>
<path d="M98.2319 102.641H100.005C100.005 102.641 101.178 103.946 101.073 104.181C100.969 104.416 97.6063 107.758 97.476 107.862C97.3456 107.966 95.8337 108.097 95.8337 108.097L93.4528 110.29L93.3833 110.31L93.2964 110.284L93.5484 109.739L95.1733 106.803" fill="#00CFB4"/>
<path d="M99.0138 55.9642V56.0832L98.3882 55.6858C98.5967 55.7786 98.8053 55.8714 99.0138 55.9642Z" fill="white" stroke="black" stroke-width="0.3" stroke-miterlimit="10"/>
<path d="M101.308 52.675C100.731 54.427 99.6335 55.5409 99.0137 56.0833C99.0224 58.7895 98.6342 63.8424 95.5988 69.0171C94.1679 71.4594 91.6799 75.7001 86.4228 77.8408C81.8493 79.703 77.6466 78.9691 75.8652 78.5456L76.7139 66.9026C78.7327 66.4356 83.4858 64.8373 87.5437 60.4806C90.1129 57.7221 91.3989 54.8418 92.0419 52.9941C92.0361 51.0826 93.2439 48.0166 95.0108 46.6969C97.5654 44.7912 101.218 48.0776 101.635 50.3255C101.794 51.1957 101.528 52.005 101.308 52.675Z" fill="white" stroke="black" stroke-width="0.3" stroke-miterlimit="10"/>
<path d="M100.806 46.3981C101.681 46.2473 102.84 47.1349 103.048 48.1965C103.228 49.1131 102.64 49.8702 102.284 50.3314C101.351 51.538 100.013 51.9006 99.4451 52.0166C99.2104 52.0195 98.3068 52.0137 98.0808 51.5264C97.9013 51.1435 98.2343 50.662 98.4776 50.2879C100.198 47.628 99.9172 46.5519 100.806 46.3981Z" fill="white" stroke="#020201" stroke-width="0.3" stroke-miterlimit="10" stroke-linecap="round"/>
<path d="M99.0107 44.4575C99.9376 44.0717 101.441 44.7562 101.936 45.8759C102.365 46.8418 101.907 47.8251 101.629 48.4226C100.902 49.9889 99.5176 50.7286 98.9209 51.0012C98.6602 51.0651 97.6638 51.2855 97.2931 50.8069C97.0006 50.4298 97.2439 49.812 97.4176 49.3392C98.6486 45.9687 98.0665 44.8519 99.0107 44.4575Z" fill="white" stroke="#020201" stroke-width="0.3" stroke-miterlimit="10" stroke-linecap="round"/>
<path d="M96.859 42.4417C97.8206 41.8732 99.5816 42.3982 100.3 43.5556C100.92 44.5534 100.566 45.7107 100.352 46.4098C99.7902 48.2458 98.3767 49.2727 97.7626 49.6642C97.4875 49.7745 96.4216 50.169 95.9379 49.6991C95.5556 49.3278 95.7322 48.6113 95.851 48.0631C96.6939 44.1618 95.88 43.0189 96.859 42.4417Z" fill="white" stroke="#020201" stroke-width="0.3" stroke-miterlimit="10" stroke-linecap="round"/>
<path d="M93.9736 45.0348C94.0663 44.0718 94.2372 42.9666 94.5471 41.7629C94.9613 40.1472 95.5145 38.7868 96.0417 37.7078C96.3835 37.0436 97.1279 36.71 97.797 36.8898C98.5587 37.0929 99.0627 37.9138 98.8744 38.752C98.243 40.9942 97.6145 43.2364 96.983 45.4757" fill="white"/>
<path d="M93.9736 45.0348C94.0663 44.0718 94.2372 42.9666 94.5471 41.7629C94.9613 40.1472 95.5145 38.7868 96.0417 37.7078C96.3835 37.0436 97.1279 36.71 97.797 36.8898C98.5587 37.0929 99.0627 37.9138 98.8744 38.752C98.243 40.9942 97.6145 43.2364 96.983 45.4757" stroke="#020201" stroke-width="0.3" stroke-miterlimit="10" stroke-linecap="round"/>
<path d="M92.0794 52.8838C91.9751 51.709 91.755 48.3356 92.8354 45.9919C93.2409 45.1101 93.6724 44.7185 94.133 44.5271C95.1352 44.1065 96.1257 44.6924 96.1982 44.7388C96.9252 45.1855 97.6406 46.1775 97.3451 47.1405C97.041 48.1355 95.7492 48.8171 94.4255 48.3936" fill="white"/>
<path d="M92.0794 52.8838C91.9751 51.709 91.755 48.3356 92.8354 45.9919C93.2409 45.1101 93.6724 44.7185 94.133 44.5271C95.1352 44.1065 96.1257 44.6924 96.1982 44.7388C96.9252 45.1855 97.6406 46.1775 97.3451 47.1405C97.041 48.1355 95.7492 48.8171 94.4255 48.3936" stroke="#020201" stroke-width="0.3" stroke-miterlimit="10" stroke-linecap="round"/>
<path d="M65.4727 62.1831L70.1823 81.8609C72.5979 80.9385 75.0136 80.0161 77.4292 79.0937C77.8 77.6144 78.1301 75.7 78.1591 73.4549C78.1939 70.6471 77.7391 68.3034 77.2728 66.6152C76.259 66.8125 73.2728 67.2534 70.078 65.6754C67.7551 64.5268 66.1041 63.0678 65.4929 62.186" fill="#285993"/>
<path d="M65.4727 62.1831L70.1823 81.8609C72.5979 80.9385 75.0136 80.0161 77.4292 79.0937C77.8 77.6144 78.1301 75.7 78.1591 73.4549C78.1939 70.6471 77.7391 68.3034 77.2728 66.6152C76.259 66.8125 73.2728 67.2534 70.078 65.6754C67.7551 64.5268 66.1041 63.0678 65.4929 62.186" stroke="black" stroke-width="0.25" stroke-miterlimit="10" stroke-linecap="round"/>
<path d="M62.3619 27.1699C63.0455 26.233 64.624 24.3476 67.3409 23.2279C68.9658 22.5579 70.4343 22.3926 71.4336 22.3665C71.2714 22.5898 70.8717 23.1931 70.834 24.0633C70.7935 25.0147 71.2048 25.6935 71.3554 25.9168C71.6827 25.4875 72.3141 24.774 73.3366 24.2461C74.7327 23.5238 76.039 23.5673 76.5951 23.6195C76.3112 23.898 75.7522 24.5216 75.4742 25.4991C75.1295 26.7058 75.4249 27.7152 75.5524 28.0836C75.8246 27.8283 76.653 27.1206 77.9506 26.961C79.1642 26.8131 80.0882 27.2308 80.4271 27.4048C80.1838 27.6079 79.1758 30.697 79.254 31.0074C79.5697 31.135 80.1867 31.3323 80.9745 31.2684C81.6899 31.2104 82.2229 30.961 82.5125 30.7985C82.5154 31.4164 82.4343 32.4171 81.939 33.5135C81.0846 35.4047 79.5553 36.3184 78.9933 36.6201C79.3988 36.6984 79.9144 36.7564 80.5053 36.7245C81.5567 36.6694 82.3851 36.359 82.9035 36.1125C82.7645 36.5911 82.2345 38.1922 80.6096 39.3235C79.2424 40.272 77.8608 40.3619 77.325 40.3677C73.3974 38.8536 69.4698 37.3423 65.5422 35.8282C65.212 37.4874 64.2504 41.0551 61.2323 43.8339C60.317 44.6751 58.9267 45.9253 56.7138 46.3923C55.2309 46.7055 53.9593 46.5431 53.1686 46.3749C52.6936 44.4488 52.346 41.9398 52.6472 39.0653C53.5828 30.1691 60.0216 24.6956 61.8232 23.2627C61.7392 23.8255 61.6841 24.6463 61.8666 25.6035C61.9883 26.2359 62.1794 26.7638 62.3619 27.1699Z" fill="black"/>
<path d="M52.6066 56.1817C52.7167 56.1672 54.2952 56.0106 55.0078 54.4153C55.4857 53.3449 55.3466 52.0919 54.6428 51.1434C52.9918 51.3841 51.448 50.308 51.1149 48.7591C50.8021 47.2943 51.6537 45.7946 53.044 45.2609C54.3561 44.7591 55.8738 45.2174 56.7109 46.3922C58.0114 45.696 59.9723 44.4314 61.7855 42.2849C64.0852 39.5612 64.9976 36.765 65.3829 35.219C67.0512 36.037 69.1106 36.8869 71.5349 37.5685C73.5798 38.1428 75.4538 38.4735 77.0787 38.6649C78.5588 44.411 76.8991 50.2935 72.7862 53.7191C69.183 56.7213 64.9658 56.7851 63.6102 56.7474C63.4915 56.9388 62.8687 57.983 63.2453 59.1636C63.3843 59.6016 63.616 59.9177 63.8014 60.1266C61.9621 62.7603 58.5675 63.6624 55.9201 62.3891C53.7188 61.3245 52.4589 58.7894 52.6066 56.1817Z" fill="white" stroke="black" stroke-width="0.2" stroke-miterlimit="10" stroke-linecap="round"/>
<path d="M67.8188 47.941C68.3851 47.941 68.8441 47.3333 68.8441 46.5836C68.8441 45.8338 68.3851 45.2261 67.8188 45.2261C67.2525 45.2261 66.7935 45.8338 66.7935 46.5836C66.7935 47.3333 67.2525 47.941 67.8188 47.941Z" fill="black"/>
<path d="M72.8442 49.6293C73.4105 49.6293 73.8695 49.0215 73.8695 48.2718C73.8695 47.5221 73.4105 46.9143 72.8442 46.9143C72.2779 46.9143 71.8188 47.5221 71.8188 48.2718C71.8188 49.0215 72.2779 49.6293 72.8442 49.6293Z" fill="black"/>
<path d="M66.8892 53.3042C65.5307 52.4979 64.6908 51.4072 65.0094 50.8706C65.328 50.334 66.6864 50.5487 68.0449 51.355C68.656 51.7176 68.2418 52.0976 68.0449 52.5704C67.8045 53.1418 67.6365 53.748 66.8892 53.3042Z" fill="black"/>
<path d="M71.2513 47.1926V50.5718L69.1919 51.239" stroke="black" stroke-width="0.3" stroke-miterlimit="10"/>
<path d="M52.5432 56.1558C49.5483 57.5423 47.4716 59.2681 46.0088 60.8896C38.2116 69.5363 38.3941 88.077 46.1479 103.668C48.2159 102.847 51.7178 101.165 54.0031 100.413C59.7235 98.5338 64.2217 95.317 69.1573 94.4439C69.4354 90.383 69.7134 86.3222 69.9915 82.2613C70.4607 79.7871 71.1211 74.4296 68.8561 68.3732C67.4136 64.5153 65.3137 61.783 63.8046 60.1238C63.4571 60.4806 61.528 62.3921 58.7938 62.2355C55.8684 62.0701 53.2152 59.6075 52.5432 56.1558Z" fill="#3869B2" stroke="black" stroke-width="0.25" stroke-miterlimit="10" stroke-linecap="round"/>
<path d="M81.6845 79.7463C82.1479 80.2742 82.397 80.7992 82.5302 81.1473C82.704 81.6317 83.0429 82.0058 83.4079 82.0262C83.964 82.0552 84.4825 81.2546 84.4593 80.6629C84.4477 80.4047 84.4187 80.132 84.3637 79.8478C84.1175 78.5744 83.4484 77.6056 82.8431 76.9472L82.8546 76.9211C83.1211 77.1908 83.3963 77.5041 83.6686 77.858C84.1262 78.4526 84.4593 79.024 84.7026 79.5113C84.9024 79.8768 85.2732 80.0972 85.6237 80.0595C86.1074 80.0073 86.5303 79.462 86.4231 78.8239C86.3333 78.3511 86.119 77.5679 85.5715 76.7528C84.9488 75.8275 84.1957 75.3025 83.7612 75.0473C84.0625 75.1894 84.3869 75.3721 84.7287 75.5955C85.3108 75.9813 85.7714 76.3903 86.119 76.7528C86.8228 77.4229 87.6454 77.6607 88.0045 77.3968C88.41 77.1009 88.4303 76.0074 87.6135 74.9689C87.1762 74.5223 86.3565 73.8087 85.1284 73.3852C84.2536 73.0836 83.5324 73.0516 83.0603 73.0371C81.363 72.982 80.0799 73.4548 79.3413 73.7333C77.5599 74.4091 76.2652 75.4127 75.4311 76.2046C73.7424 77.739 72.0567 79.2706 70.368 80.805C70.3623 80.8108 70.3536 80.8166 70.3478 80.8224C70.2551 80.9065 70.1595 80.9935 70.0668 81.0776C70.0494 81.0951 70.0292 81.1125 70.0118 81.1328C68.7316 82.3655 67.4484 83.6012 66.1682 84.8369C66.0234 84.9645 65.1284 85.7273 63.8742 85.5678C63.8076 85.5591 63.741 85.5475 63.6772 85.5359C62.9879 85.3967 62.397 84.9645 62.0002 84.3844C61.2587 83.3111 59.7526 80.4221 59.014 79.3489C58.2406 78.2292 57.5541 79.6273 56.3087 80.1756L48.0538 83.81C46.7127 84.3989 46.0379 85.913 46.5042 87.3024C47.1269 89.1588 48.0943 91.3545 49.6237 93.6083C51.1559 95.8679 52.8127 97.5357 54.1798 98.7076C54.2493 98.7656 54.3159 98.8207 54.3883 98.8729C55.2602 99.485 56.9285 100.465 59.2167 100.709C63.2602 101.138 66.1943 98.9425 66.8633 98.4117C68.8706 96.7874 71.1877 94.6583 73.502 91.9376C74.9184 90.2697 76.1204 88.6367 77.1342 87.1022C78.174 85.5823 79.2167 84.0595 80.2565 82.5396L80.3898 82.2524C80.3521 82.4061 80.326 82.6817 80.494 82.9543C80.662 83.2328 80.9314 83.3401 81.0154 83.372C81.1342 83.4068 81.531 83.5113 81.893 83.3198C82.3536 83.0762 82.4665 82.5367 82.4549 82.293C82.4405 81.9855 82.3999 81.6404 82.3043 81.2662C82.1421 80.6136 81.8728 80.0711 81.5947 79.6418" fill="white"/>
<path d="M81.6845 79.7463C82.1479 80.2742 82.397 80.7992 82.5302 81.1473C82.704 81.6317 83.0429 82.0059 83.4079 82.0262C83.964 82.0552 84.4825 81.2546 84.4593 80.6629C84.4477 80.4047 84.4187 80.132 84.3637 79.8478C84.1175 78.5744 83.4484 77.6056 82.8431 76.9472L82.8546 76.9211C83.1211 77.1908 83.3963 77.5041 83.6686 77.858C84.1262 78.4526 84.4593 79.024 84.7026 79.5113C84.9024 79.8768 85.2732 80.0972 85.6237 80.0595C86.1074 80.0073 86.5303 79.462 86.4231 78.8239C86.3333 78.3511 86.119 77.5679 85.5715 76.7528C84.9488 75.8275 84.1957 75.3025 83.7612 75.0473C84.0625 75.1894 84.3869 75.3721 84.7287 75.5955C85.3108 75.9813 85.7714 76.3903 86.119 76.7528C86.8228 77.4229 87.6454 77.6607 88.0045 77.3968C88.41 77.1009 88.4303 76.0074 87.6135 74.9689C87.1762 74.5223 86.3565 73.8087 85.1284 73.3852C84.2536 73.0836 83.5324 73.0516 83.0603 73.0371C81.363 72.982 80.0799 73.4548 79.3413 73.7333C77.5599 74.4091 76.2652 75.4127 75.4311 76.2046C73.7424 77.739 72.0567 79.2706 70.368 80.805C70.3623 80.8108 70.3536 80.8166 70.3478 80.8224C70.2551 80.9065 70.1595 80.9935 70.0668 81.0776C70.0494 81.0951 70.0292 81.1125 70.0118 81.1328C68.7316 82.3655 67.4484 83.6012 66.1682 84.8369C66.0234 84.9645 65.1284 85.7273 63.8742 85.5678C63.8076 85.5591 63.741 85.5475 63.6772 85.5359C62.9879 85.3967 62.397 84.9645 62.0002 84.3844C61.2587 83.3111 59.7526 80.4221 59.014 79.3489C58.2406 78.2292 57.5541 79.6273 56.3087 80.1756L48.0538 83.81C46.7127 84.3989 46.0379 85.913 46.5042 87.3024C47.1269 89.1588 48.0943 91.3545 49.6237 93.6083C51.1559 95.8679 52.8127 97.5357 54.1798 98.7076C54.2493 98.7656 54.3159 98.8207 54.3883 98.8729C55.2602 99.485 56.9285 100.465 59.2167 100.709C63.2602 101.138 66.1943 98.9425 66.8633 98.4117C68.8706 96.7874 71.1877 94.6583 73.502 91.9376C74.9184 90.2697 76.1204 88.6367 77.1342 87.1022C78.174 85.5823 79.2167 84.0595 80.2565 82.5396L80.3898 82.2524C80.3521 82.4061 80.326 82.6817 80.494 82.9543C80.662 83.2328 80.9314 83.3401 81.0154 83.372C81.1342 83.4068 81.531 83.5113 81.893 83.3198C82.3536 83.0762 82.4665 82.5367 82.4549 82.293C82.4405 81.9855 82.3999 81.6404 82.3043 81.2662C82.1421 80.6136 81.8728 80.0711 81.5947 79.6418" stroke="black" stroke-width="0.3" stroke-miterlimit="10"/>
<path d="M59.5468 79.0939C58.2058 80.5152 56.103 82.4238 53.1341 84.0539C50.3535 85.5796 47.7872 86.328 45.9393 86.7167C45.4875 85.5883 38.3274 67.2971 45.053 61.9686C45.5917 61.5422 46.2434 61.1797 47.0342 60.9244C47.431 60.7968 49.9364 60.0368 52.4563 61.4987C54.8169 62.8678 55.4715 65.1854 55.5845 65.6234L59.5468 79.0939Z" fill="#285993" stroke="black" stroke-width="0.25" stroke-miterlimit="10" stroke-linecap="round"/>
<path d="M91.6417 88.5353L107.575 89.1386C107.813 89.098 108.041 89.0603 108.279 89.0226C108.467 88.9501 108.676 88.8486 108.884 88.7035C109.576 88.2133 109.788 87.5578 109.849 87.3286C111.479 81.2896 113.11 75.2505 114.744 69.2114C114.767 69.0838 114.842 68.5588 114.469 68.0424C114.046 67.4623 113.365 67.3376 113.249 67.3202L94.3383 65.2985C94.2919 65.2869 93.4346 65.0693 92.8524 65.6436C92.5511 65.9424 92.4758 66.305 92.4527 66.4558C91.5055 72.7385 90.5584 79.0213 89.6112 85.304C89.3564 86.4237 89.6721 87.5201 90.4338 88.1002C90.8683 88.4309 91.3462 88.515 91.6417 88.5353Z" fill="#99B6E0" stroke="black" stroke-width="0.25" stroke-miterlimit="10"/>
<path d="M102.976 15.3441C102.976 17.4354 101.956 19.2947 100.375 20.4666C100.372 20.4695 100.369 20.4695 100.366 20.4724C100.169 20.5942 99.9608 20.7305 99.7465 20.8814C99.1556 21.2903 98.5155 21.8096 97.8811 22.4593C97.4235 22.9234 97.0412 23.3846 96.7197 23.8139L91.1759 22.0793C91.2077 21.5456 91.1961 20.8756 91.0716 20.1127C90.921 19.199 90.6516 18.4477 90.4054 17.8995C90.3996 17.885 90.3938 17.8734 90.388 17.8618C90.3764 17.8444 90.3706 17.8241 90.362 17.8038C90.0405 17.0467 89.8638 16.2172 89.8638 15.3441C89.8638 11.7966 92.7979 8.92212 96.4213 8.92212C100.042 8.92212 102.976 11.7966 102.976 15.3441Z" fill="#F1C260" stroke="black" stroke-width="0.2" stroke-miterlimit="10"/>
<path d="M96.7542 23.8255C96.7716 23.8545 97.096 24.307 96.8353 24.832C96.6644 25.1772 96.398 25.3077 96.314 25.3425L90.7238 23.5413C90.6804 23.4716 90.5124 23.1816 90.5848 22.8103C90.6833 22.3114 91.1293 22.0997 91.1757 22.0793L96.7542 23.8255Z" fill="#B6C6DD" stroke="black" stroke-width="0.2" stroke-miterlimit="10"/>
<path d="M96.3289 25.3048C96.3463 25.3338 96.6707 25.7863 96.41 26.3113C96.2391 26.6564 95.9727 26.787 95.8887 26.8218L90.2985 25.0205C90.2551 24.9509 90.0871 24.6608 90.1595 24.2896C90.258 23.7906 90.704 23.5789 90.7504 23.5586L96.3289 25.3048Z" fill="#B6C6DD" stroke="black" stroke-width="0.2" stroke-miterlimit="10"/>
<path d="M95.8914 26.7725C95.9088 26.8015 96.2332 27.254 95.9725 27.7791C95.8016 28.1242 95.5352 28.2548 95.4512 28.2896L89.861 26.4883C89.8176 26.4187 89.6496 26.1286 89.722 25.7573C89.8205 25.2584 90.2665 25.0467 90.3129 25.0264L95.8914 26.7725Z" fill="#B6C6DD" stroke="black" stroke-width="0.2" stroke-miterlimit="10"/>
<path d="M89.8696 26.4941L90.6806 28.1301L93.5221 29.0177L95.4395 28.3041" fill="#B6C6DD"/>
<path d="M89.8696 26.4941L90.6806 28.1301L93.5221 29.0177L95.4395 28.3041" stroke="black" stroke-width="0.2" stroke-miterlimit="10"/>
<path d="M86.1099 18.3722L88.0128 17.9023" stroke="#C68D26" stroke-width="0.5" stroke-miterlimit="10"/>
<path d="M86.2925 12.864L88.3258 13.5428" stroke="#C68D26" stroke-width="0.5" stroke-miterlimit="10"/>
<path d="M89.2124 8.3999L90.5679 9.96624" stroke="#C68D26" stroke-width="0.5" stroke-miterlimit="10"/>
<path d="M94.0605 5.91992L94.4516 7.95615" stroke="#C68D26" stroke-width="0.5" stroke-miterlimit="10"/>
<path d="M99.4043 6.18091L98.7266 8.19104" stroke="#C68D26" stroke-width="0.5" stroke-miterlimit="10"/>
<path d="M103.94 9.05249L102.402 10.5144" stroke="#C68D26" stroke-width="0.5" stroke-miterlimit="10"/>
<path d="M106.339 13.7517L104.332 14.3782" stroke="#C68D26" stroke-width="0.5" stroke-miterlimit="10"/>
<path d="M106.156 19.312L104.149 18.6333" stroke="#C68D26" stroke-width="0.5" stroke-miterlimit="10"/>
<path d="M103.173 23.9588L101.881 22.2358" stroke="#C68D26" stroke-width="0.5" stroke-miterlimit="10"/>
<path d="M93.1769 22.6217L94.7439 17.7516C94.8743 17.3223 94.7294 16.835 94.3442 16.6059C94.2052 16.5218 94.043 16.4724 93.875 16.4695C93.4174 16.4579 92.9974 16.7828 92.8844 17.2527C92.8728 17.2991 92.757 17.7458 93.0437 18.1316C93.1798 18.3143 93.3478 18.4072 93.4405 18.4478L94.8743 18.938L95.552 19.1468L97.009 19.5558C97.1103 19.5732 97.3015 19.5935 97.5158 19.521C97.9677 19.3644 98.127 18.9322 98.1415 18.8887C98.3152 18.4391 98.1531 17.9314 97.7678 17.682C97.6259 17.5892 97.4666 17.5399 97.3044 17.5283C96.8583 17.4993 96.4615 17.8183 96.3254 18.2447L94.7323 23.1149" stroke="#C68D26" stroke-width="0.5" stroke-miterlimit="10"/>
<circle cx="20.5" cy="42.5" r="13.5" fill="#F2F6FC"/>
<circle cx="135.5" cy="87.5" r="13.5" fill="#F2F6FC"/>
</g>
<defs>
<clipPath id="clip0_3206_205218">
<rect width="148" height="148" fill="white"/>
</clipPath>
</defs>
</svg>
