<svg width="24" height="24" viewBox="0 0 24 24" fill="none" xmlns="http://www.w3.org/2000/svg">
<g id="Instant support">
<g id="Capa_5">
<g id="Group">
<path id="Vector" d="M6.01978 8.80518H5.38086V10.4315H6.01978V8.80518Z" stroke="black" stroke-width="0.1" stroke-miterlimit="10"/>
<path id="Vector_2" d="M17.9368 8.80518H17.2979V10.4315H17.9368V8.80518Z" stroke="black" stroke-width="0.1" stroke-miterlimit="10"/>
<path id="Vector_3" d="M6.01957 8.80506C5.91712 5.63182 8.47685 2.97326 11.5956 2.93857C14.7612 2.90348 17.4008 5.58382 17.2976 8.80506" stroke="black" stroke-width="0.1" stroke-miterlimit="10"/>
<path id="Vector_4" d="M5.38039 8.80526C5.28238 5.28552 8.12043 2.34502 11.576 2.29984C15.0925 2.25386 18.0355 5.2226 17.9362 8.80526" stroke="black" stroke-width="0.1" stroke-miterlimit="10"/>
</g>
<path id="Vector_5" d="M17.7371 17.2461V21.0054C17.7371 21.0623 17.6907 21.1087 17.6338 21.1087H13.8721V20.4702H16.9953C17.0522 20.4702 17.0986 20.4238 17.0986 20.3669V17.2461H17.7371Z" stroke="black" stroke-width="0.1" stroke-miterlimit="10"/>
</g>
<g id="Capa_4">
<g id="Group_2">
<path id="Vector_6" d="M14.5552 19.8262H12.6094V21.772H14.5552V19.8262Z" fill="#BAD0EE"/>
<path id="Vector_7" d="M8.52334 9.87939H6.28711V18.0692H8.52334V9.87939Z" fill="#BAD0EE"/>
<path id="Vector_8" d="M18.0067 9.87939H15.7705V18.0692H18.0067V9.87939Z" fill="#BAD0EE"/>
<path id="Vector_9" d="M6.28787 10.6345H4.46387V17.3142H6.28787V10.6345Z" fill="#BAD0EE"/>
<path id="Vector_10" d="M19.8299 10.6345H18.0059V17.3142H19.8299V10.6345Z" fill="#BAD0EE"/>
</g>
</g>
<g id="Capa_3">
<g id="Group_3">
<path id="Vector_11" d="M13.3294 7.6416H10.4131L11.0084 14.4967H12.734L13.3294 7.6416ZM13.3294 7.6416H10.4131" stroke="black" stroke-width="0.10084" stroke-miterlimit="10"/>
<path id="Vector_12" d="M12.7398 15.0195H11.0166V16.7427H12.7398V15.0195Z" stroke="black" stroke-width="0.10084" stroke-miterlimit="10"/>
</g>
<g id="Group_4" opacity="0.72">
<path id="Vector_13" d="M13.5823 8.00049H10.666L11.2618 14.8556H12.987L13.5823 8.00049H10.666H13.5823Z" fill="black"/>
<path id="Vector_14" d="M12.9927 15.3784H11.2695V17.1016H12.9927V15.3784Z" fill="black"/>
</g>
</g>
<g id="Capa_2">
<g id="Group_5">
<path id="Vector_15" d="M14.2866 19.6135H12.3408V21.5593H14.2866V19.6135Z" stroke="#244E9D" stroke-width="0.0605042" stroke-miterlimit="10"/>
<path id="Vector_16" d="M8.25479 9.66675H6.01855V17.8566H8.25479V9.66675Z" stroke="#244E9D" stroke-width="0.0605042" stroke-miterlimit="10"/>
<path id="Vector_17" d="M17.7382 9.66675H15.502V17.8566H17.7382V9.66675Z" stroke="#244E9D" stroke-width="0.0605042" stroke-miterlimit="10"/>
<path id="Vector_18" d="M6.01931 10.4219H4.19531V17.1015H6.01931V10.4219Z" stroke="#244E9D" stroke-width="0.0605042" stroke-miterlimit="10"/>
<path id="Vector_19" d="M19.5613 10.4219H17.7373V17.1015H19.5613V10.4219Z" stroke="#244E9D" stroke-width="0.0605042" stroke-miterlimit="10"/>
</g>
</g>
</g>
</svg>
